<svg width="20" height="20" viewBox="0 0 20 20" fill="none" xmlns="http://www.w3.org/2000/svg">
<path d="M9.94219 11.6667C9.25176 11.6667 8.6649 11.4236 8.1816 10.9375C7.69829 10.4514 7.45664 9.86111 7.45664 9.16666V4.16666C7.45664 3.47222 7.69829 2.88194 8.1816 2.39583C8.6649 1.90972 9.25176 1.66666 9.94219 1.66666C10.6326 1.66666 11.2195 1.90972 11.7028 2.39583C12.1861 2.88194 12.4277 3.47222 12.4277 4.16666V9.16666C12.4277 9.86111 12.1861 10.4514 11.7028 10.9375C11.2195 11.4236 10.6326 11.6667 9.94219 11.6667ZM9.11368 17.5V14.9375C7.67758 14.7431 6.49004 14.0972 5.55106 13C4.61207 11.9028 4.14258 10.625 4.14258 9.16666H5.79961C5.79961 10.3194 6.20351 11.3021 7.01132 12.1146C7.81912 12.9271 8.79608 13.3333 9.94219 13.3333C11.0883 13.3333 12.0653 12.9271 12.8731 12.1146C13.6809 11.3021 14.0848 10.3194 14.0848 9.16666H15.7418C15.7418 10.625 15.2723 11.9028 14.3333 13C13.3943 14.0972 12.2068 14.7431 10.7707 14.9375V17.5H9.11368Z" fill="#1D1B20"/>
</svg>
